<?xml version="1.0"?>
<!DOCTYPE svg PUBLIC "-//W3C//DTD SVG 1.1//EN" "http://www.w3.org/Graphics/SVG/1.1/DTD/svg11.dtd">
<svg xmlns="http://www.w3.org/2000/svg" xmlns:xl="http://www.w3.org/1999/xlink" version="1.1" viewBox="296 292 55 64" width="55pt" height="64pt"><metadata xmlns:dc="http://purl.org/dc/elements/1.1/"><dc:date>2010-01-10 17:09Z</dc:date><!-- Produced by OmniGraffle Professional 5.2.1 --></metadata><defs></defs><g stroke="none" stroke-opacity="1" stroke-dasharray="none" fill="none" fill-opacity="1"><title>Canvas 1</title><g><title>Layer 1</title><path d="M 334.86066 338.82248 C 332.36044 340.94748 329.95389 342.44733 327.64096 343.32193 C 325.328 344.19794 322.84668 344.63522 320.19562 344.63522 C 315.8205 344.63522 312.45831 343.56644 310.10696 341.4288 C 307.75696 339.29053 306.58127 336.55981 306.58197 333.23328 C 306.58127 331.28287 307.02487 329.50156 307.91345 327.88855 C 308.79993 326.27695 309.96301 324.98251 311.4007 324.00732 C 312.83905 323.03214 314.45828 322.29517 316.25848 321.79495 C 317.583 321.445 319.58368 321.1069 322.25919 320.78137 C 327.71082 320.13171 331.72266 319.35696 334.2983 318.45654 C 334.32272 317.53168 334.33533 316.94415 334.33533 316.69339 C 334.33533 313.94312 333.69754 312.00458 332.42267 310.88058 C 330.69788 309.35492 328.13483 308.59283 324.73422 308.59283 C 321.55923 308.59283 319.21555 309.1489 317.70175 310.26166 C 316.19006 311.37448 315.07095 313.34372 314.34515 316.1687 L 307.74368 315.26828 C 308.34375 312.4419 309.33151 310.16107 310.7077 308.42307 C 312.08249 306.68643 314.07129 305.3487 316.67136 304.4112 C 319.27213 303.47305 322.28433 303.0043 325.70941 303.0043 C 329.11005 303.0043 331.87357 303.40393 333.9986 304.20444 C 336.12363 305.0043 337.68564 306.0116 338.686 307.22293 C 339.68564 308.43634 340.38632 309.96686 340.78656 311.81812 C 341.01154 312.96793 341.124 315.04404 341.124 318.04367 L 341.124 327.04468 C 341.124 333.32056 341.26788 337.29053 341.5557 338.9538 C 341.8428 340.61572 342.41144 342.2098 343.2616 343.7348 L 336.21097 343.7348 C 335.51102 342.33417 335.06113 340.69672 334.86066 338.82248 Z M 334.2983 323.74536 C 331.84775 324.74503 328.17258 325.59515 323.27142 326.2944 C 320.4967 326.6961 318.53372 327.146 317.38391 327.64545 C 316.23267 328.1456 315.34476 328.87628 314.71957 329.83963 C 314.09436 330.80228 313.7821 331.87106 313.7835 333.04535 C 313.7821 334.84625 314.4639 336.34604 315.82751 337.54617 C 317.18973 338.7463 319.18341 339.3471 321.80862 339.3471 C 324.4101 339.3471 326.72235 338.77847 328.74747 337.64053 C 330.77261 336.50323 332.26056 334.94684 333.21133 332.97061 C 333.93643 331.44635 334.2983 329.19556 334.2983 326.2204 L 334.2983 323.74536 Z" fill="black"/><path d="M 335.76642 298.53723 L 349.45264 308.58368 L 350.78778 292.70386 Z" fill="black"/><path d="M 311.30258 350.10672 L 297.61633 340.06027 L 296.28116 355.9401 Z" fill="black"/></g></g></svg>
