<?xml version="1.0"?>
<!DOCTYPE svg PUBLIC "-//W3C//DTD SVG 1.1//EN" "http://www.w3.org/Graphics/SVG/1.1/DTD/svg11.dtd">
<svg xmlns="http://www.w3.org/2000/svg" xmlns:xl="http://www.w3.org/1999/xlink" version="1.1" viewBox="5 292 64 65" width="64pt" height="65pt"><metadata xmlns:dc="http://purl.org/dc/elements/1.1/"><dc:date>2010-01-10 17:06Z</dc:date><!-- Produced by OmniGraffle Professional 5.2.1 --></metadata><defs></defs><g stroke="none" stroke-opacity="1" stroke-dasharray="none" fill="none" fill-opacity="1"><title>Canvas 1</title><g><title>Layer 1</title><path d="M 62.020245 326.9737 C 63.935875 328.29132 65.494057 329.94638 66.692894 331.9389 C 67.89023 333.93146 68.489647 336.27505 68.489647 338.97018 C 68.489647 342.20486 67.80694 344.9385 66.44503 347.17014 C 65.082558 349.40128 63.128513 351.16104 60.582832 352.4494 C 57.886196 353.82697 54.77913 354.7999 51.259563 355.36954 C 47.74006 355.9383 43.598164 356.22314 38.836006 356.22314 L 5.7231903 356.22314 L 5.7231903 352.71924 C 6.65226 352.62958 7.820406 352.49423 9.227127 352.31406 C 10.6358585 352.13388 11.623802 351.92407 12.1925926 351.68542 C 13.300358 351.2355 14.057007 350.64487 14.462164 349.91156 C 14.865814 349.17773 15.067923 348.2258 15.067923 347.05762 L 15.067923 302.12799 C 15.067923 301.04944 14.902847 300.1496 14.574642 299.4313 C 14.244991 298.71216 13.451309 298.083 12.1925926 297.54498 C 11.2644634 297.15543 10.1859493 296.83359 8.957861 296.57889 C 7.729332 296.32324 6.65226 296.12164 5.7231903 295.9722 L 5.7231903 292.46777 L 40.363503 292.46777 C 49.080563 292.46777 55.370766 293.66656 59.234543 296.0628 C 63.098824 298.45898 65.03002 301.99261 65.03002 306.6662 C 65.03002 308.8223 64.59662 310.7175 63.727936 312.34964 C 62.858803 313.98285 61.61515 315.39783 59.99854 316.59521 C 58.52993 317.70297 56.777992 318.66174 54.740654 319.47055 C 52.70476 320.27982 50.518478 320.95325 48.18068 321.49228 L 48.18068 322.34634 C 50.518478 322.58643 52.94384 323.10257 55.460335 323.89627 C 57.975323 324.68997 60.16211 325.7164 62.020245 326.9737 Z M 47.552074 307.78952 C 47.55352 304.25491 46.556286 301.49936 44.564266 299.52243 C 42.57174 297.54498 39.584896 296.556 35.601318 296.556 C 35.032578 296.556 34.290497 296.57889 33.37653 296.62372 C 32.462547 296.66855 31.676643 296.7055 31.0188 296.73618 L 31.0188 320.36893 L 33.35461 320.36893 C 38.207375 320.36893 41.785828 319.23923 44.092453 316.97745 C 46.399494 314.71661 47.55352 311.65283 47.552074 307.78952 Z M 50.697178 338.38638 C 50.697178 333.95435 49.37952 330.55359 46.743267 328.18661 C 44.108017 325.81964 40.318707 324.63736 35.37635 324.63736 C 34.808098 324.63736 34.05141 324.65927 33.108227 324.70554 C 32.163578 324.74985 31.46726 324.78833 31.0188 324.81754 L 31.0188 348.13623 C 31.287102 349.2445 32.126572 350.17984 33.534775 350.94382 C 34.943466 351.70831 36.64968 352.0906 38.655842 352.0906 C 42.220173 352.0906 45.11887 350.89175 47.35003 348.49554 C 49.581627 346.09888 50.697178 342.73029 50.697178 338.38638 Z" fill="black"/></g></g></svg>
