<?xml version="1.0"?>
<!DOCTYPE svg PUBLIC "-//W3C//DTD SVG 1.1//EN" "http://www.w3.org/Graphics/SVG/1.1/DTD/svg11.dtd">
<svg xmlns="http://www.w3.org/2000/svg" xmlns:xl="http://www.w3.org/1999/xlink" version="1.1" viewBox="292 369 62 54" width="62pt" height="54pt"><metadata xmlns:dc="http://purl.org/dc/elements/1.1/"><dc:date>2010-01-10 17:11Z</dc:date><!-- Produced by OmniGraffle Professional 5.2.1 --></metadata><defs></defs><g stroke="none" stroke-opacity="1" stroke-dasharray="none" fill="none" fill-opacity="1"><title>Canvas 1</title><g><title>Layer 1</title><path d="M 310.50003 373.49997 L 310.50003 378.00003 L 353.25 378.00003 L 353.25 373.49997 Z M 310.50003 393.74997 L 310.50003 398.25 L 353.25 398.25 L 353.25 393.74997 Z M 310.50003 413.99997 L 310.50003 418.50003 L 353.25 418.50003 L 353.25 413.99997 Z M 304.02301 370.97705 C 301.38693 368.34097 297.11304 368.34097 294.47705 370.97705 C 291.84097 373.61307 291.84097 377.88693 294.47705 380.52295 C 297.11304 383.15903 301.38693 383.15903 304.02301 380.52295 C 306.659 377.88693 306.659 373.61307 304.02301 370.97705 M 304.02301 391.22702 C 301.38693 388.59097 297.11304 388.59097 294.47705 391.22702 C 291.84097 393.86307 291.84097 398.13693 294.47705 400.77298 C 297.11304 403.40903 301.38693 403.40903 304.02301 400.77298 C 306.659 398.13693 306.659 393.86307 304.02301 391.22702 M 304.02301 411.47705 C 301.38693 408.84097 297.11304 408.84097 294.47705 411.47705 C 291.84097 414.11307 291.84097 418.38693 294.47705 421.02295 C 297.11304 423.65903 301.38693 423.65903 304.02301 421.02295 C 306.659 418.38693 306.659 414.11307 304.02301 411.47705" fill="black"/></g></g></svg>
