<?xml version="1.0"?>
<!DOCTYPE svg PUBLIC "-//W3C//DTD SVG 1.1//EN" "http://www.w3.org/Graphics/SVG/1.1/DTD/svg11.dtd">
<svg xmlns="http://www.w3.org/2000/svg" xmlns:xl="http://www.w3.org/1999/xlink" version="1.1" viewBox="-3 142 77 76" width="77pt" height="76pt"><metadata xmlns:dc="http://purl.org/dc/elements/1.1/"><dc:date>2010-01-23 14:57Z</dc:date><!-- Produced by OmniGraffle Professional 5.2.1 --></metadata><defs><radialGradient cx="0" cy="0" r="1" id="Gradient" gradientUnits="userSpaceOnUse"><stop offset="0" stop-color="white"/><stop offset="1" stop-color="#c8c8c8"/></radialGradient><radialGradient id="Obj_Gradient" xl:href="#Gradient" gradientTransform="translate(20.914268 160.79997) scale(63.050316)"/><radialGradient cx="0" cy="0" r="1" id="Gradient_2" gradientUnits="userSpaceOnUse"><stop offset="0" stop-color="#c7d6eb"/><stop offset="1" stop-color="#1238ff"/></radialGradient><radialGradient id="Obj_Gradient_2" xl:href="#Gradient_2" gradientTransform="translate(23.657719 163.16843) scale(51.993908)"/><radialGradient cx="0" cy="0" r="1" id="Gradient_3" gradientUnits="userSpaceOnUse"><stop offset="0" stop-color="black" stop-opacity="0"/><stop offset="1" stop-color="black" stop-opacity=".58"/></radialGradient><radialGradient id="Obj_Gradient_3" xl:href="#Gradient_3" gradientTransform="translate(18.669628 174.35356) scale(53.991242)"/></defs><g stroke="none" stroke-opacity="1" stroke-dasharray="none" fill="none" fill-opacity="1"><title>Canvas 1</title><g><title>Layer 1</title><circle cx="35.999992" cy="180" r="36.000065" fill="url(#Obj_Gradient)"/><circle cx="35.999992" cy="180" r="36.000065" stroke="#696969" stroke-linecap="round" stroke-linejoin="round" stroke-width="1"/><circle cx="36.00061" cy="179.99968" r="29.454638" fill="url(#Obj_Gradient_2)"/><rect x="15.75" y="159.75" width="40.5" height="40.5" fill="white"/><path d="M 10.4939 205.40538 C 10.510668 205.42224 10.5273724 205.43901 10.544203 205.45578 C 24.60307 219.51476 47.396954 219.51476 61.45582 205.45578 C 69.800034 197.11162 73.191833 185.69034 71.631104 174.84462 C 71.614334 174.8278 71.597565 174.81099 71.580795 174.79422 C 57.52193 160.73529 34.728046 160.73529 20.66918 174.79422 C 12.3249664 183.13838 8.9331627 194.55966 10.4939 205.40538 Z" fill="url(#Obj_Gradient_3)"/></g></g></svg>
