<?xml version="1.0"?>
<!DOCTYPE svg PUBLIC "-//W3C//DTD SVG 1.1//EN" "http://www.w3.org/Graphics/SVG/1.1/DTD/svg11.dtd">
<svg xmlns="http://www.w3.org/2000/svg" xmlns:xl="http://www.w3.org/1999/xlink" version="1.1" viewBox="147 80 28 28" width="28pt" height="28pt"><metadata xmlns:dc="http://purl.org/dc/elements/1.1/"><dc:date>2009-12-12 17:12Z</dc:date><!-- Produced by OmniGraffle Professional 5.2.1 --></metadata><defs><radialGradient cx="0" cy="0" r="1" id="Gradient" gradientUnits="userSpaceOnUse"><stop offset="0" stop-color="white"/><stop offset="1" stop-color="#c8c8c8"/></radialGradient><radialGradient id="Obj_Gradient" xl:href="#Gradient" gradientTransform="translate(155.97142 87.59999) scale(21.016771)"/><radialGradient cx="0" cy="0" r="1" id="Gradient_2" gradientUnits="userSpaceOnUse"><stop offset="0" stop-color="#c7d6eb"/><stop offset="1" stop-color="#1238ff"/></radialGradient><radialGradient id="Obj_Gradient_2" xl:href="#Gradient_2" gradientTransform="translate(156.88571 88.38961) scale(17.331293)"/></defs><g stroke="none" stroke-opacity="1" stroke-dasharray="none" fill="none" fill-opacity="1"><title>Canvas 1</title><g><title>Layer 1</title><circle cx="161" cy="94" r="12.000017" fill="url(#Obj_Gradient)"/><circle cx="161" cy="94" r="12.000017" stroke="#696969" stroke-linecap="round" stroke-linejoin="round" stroke-width="1"/><path d="M 167.9425 87.057495 C 164.10826 83.223236 157.89174 83.223236 154.057495 87.057495 C 150.22324 90.89174 150.22324 97.10826 154.057495 100.942505 C 157.89174 104.776764 164.10826 104.776764 167.9425 100.942505 C 171.77676 97.10826 171.77676 90.89174 167.9425 87.057495 M 157.55357 89.61616 L 157.55357 87.666656 L 159.8512 87.666656 L 159.8512 88.31648 L 161 87.666656 L 167.89287 91.56566 L 166.46558 91.56566 L 166.46558 99.36364 L 162.1488 99.36364 L 162.1488 96.29159 L 159.8512 96.29159 L 159.8512 99.36364 L 155.53445 99.36364 L 155.53445 91.56566 L 154.10713 91.56566 Z M 157.03139 92.15641 L 157.03139 94.578514 L 158.911255 94.578514 L 158.911255 92.15641 Z M 160.06007 92.15641 L 160.06007 94.578514 L 161.93994 94.578514 L 161.93994 92.15641 Z M 163.12355 92.15641 L 163.12355 94.578514 L 165.00343 94.578514 L 165.00343 92.15641 Z" fill="url(#Obj_Gradient_2)"/><path d="M 152.49797 102.46846 C 152.503555 102.47408 152.509125 102.479675 152.51474 102.48526 C 157.20102 107.171585 164.79898 107.171585 169.48528 102.48526 C 172.26668 99.70387 173.39728 95.89678 172.87703 92.28154 C 172.87144 92.27593 172.86586 92.270325 172.86026 92.26474 C 168.17398 87.57843 160.57602 87.57843 155.889725 92.26474 C 153.10832 95.04613 151.97772 98.853226 152.49797 102.46846 Z" fill="black" fill-opacity=".17"/></g></g></svg>
