<?xml version="1.0"?>
<!DOCTYPE svg PUBLIC "-//W3C//DTD SVG 1.1//EN" "http://www.w3.org/Graphics/SVG/1.1/DTD/svg11.dtd">
<svg xmlns="http://www.w3.org/2000/svg" xmlns:xl="http://www.w3.org/1999/xlink" version="1.1" viewBox="382 220 26 64" width="26pt" height="64pt"><metadata xmlns:dc="http://purl.org/dc/elements/1.1/"><dc:date>2010-01-10 17:06Z</dc:date><!-- Produced by OmniGraffle Professional 5.2.1 --></metadata><defs></defs><g stroke="none" stroke-opacity="1" stroke-dasharray="none" fill="none" fill-opacity="1"><title>Canvas 1</title><g><title>Layer 1</title><path d="M 401.2942 220.5 C 403.14795 220.5 404.70966 221.14285 405.98166 222.4289 C 407.25247 223.71498 407.8877 225.27025 407.8877 227.09352 C 407.8877 228.91794 407.24484 230.47162 405.95877 231.7577 C 404.6727 233.04375 403.11862 233.68704 401.2942 233.68704 C 399.50067 233.68704 397.96066 233.04375 396.6746 231.7577 C 395.38852 230.47162 394.74567 228.91794 394.74567 227.09352 C 394.74567 225.27025 395.38086 223.71498 396.65167 222.4289 C 397.9237 221.14285 399.47134 220.5 401.2942 220.5 Z M 404.07565 241.13268 L 394.88065 273.02304 C 394.37161 274.84753 394.1177 276.04282 394.1177 276.61212 C 394.1177 276.93997 394.2519 277.2461 394.52109 277.53055 C 394.79025 277.815 395.07474 277.95804 395.37323 277.95685 C 395.8823 277.95804 396.39014 277.73343 396.89917 277.2843 C 398.24393 276.1782 399.85904 274.17493 401.74216 271.27371 L 403.2681 272.17087 C 398.75174 280.03482 393.95337 283.96698 388.87051 283.96698 C 386.92715 283.96698 385.37952 283.42096 384.22763 282.33017 C 383.07697 281.23816 382.5 279.85522 382.5 278.181 C 382.5 277.07498 382.75513 275.67038 383.26297 273.96603 L 389.4981 252.52577 C 390.09634 250.46146 390.39487 248.90741 390.39487 247.86119 C 390.39487 247.20308 390.11041 246.61848 389.5427 246.11066 C 388.97379 245.60323 388.19678 245.34929 387.21042 245.34929 C 386.7612 245.34929 386.22284 245.3646 385.59528 245.3939 L 386.17825 243.59995 L 401.38376 241.13268 L 404.07565 241.13268 Z" fill="black"/></g></g></svg>
