<?xml version="1.0"?>
<!DOCTYPE svg PUBLIC "-//W3C//DTD SVG 1.1//EN" "http://www.w3.org/Graphics/SVG/1.1/DTD/svg11.dtd">
<svg xmlns="http://www.w3.org/2000/svg" xmlns:xl="http://www.w3.org/1999/xlink" version="1.1" viewBox="81 293 50 64" width="50pt" height="64pt"><metadata xmlns:dc="http://purl.org/dc/elements/1.1/"><dc:date>2010-01-10 17:06Z</dc:date><!-- Produced by OmniGraffle Professional 5.2.1 --></metadata><defs></defs><g stroke="none" stroke-opacity="1" stroke-dasharray="none" fill="none" fill-opacity="1"><title>Canvas 1</title><g><title>Layer 1</title><path d="M 81.11371 356.22314 L 81.869743 352.97836 C 82.7284 352.94897 83.899796 352.85162 85.381943 352.68878 C 86.86409 352.52545 88.00611 352.31049 88.806473 352.04358 C 89.96241 351.65808 90.843704 351.0736 91.45085 350.2882 C 92.059425 349.5028 92.48153 348.5911 92.71813 347.5542 L 102.9001 303.44897 C 103.04802 302.82544 103.151634 302.30698 103.21089 301.89215 C 103.270645 301.4772 103.301 301.16599 103.29955 300.9588 C 103.301 299.71417 102.61148 298.7432 101.23337 298.0465 C 99.85481 297.34924 97.742844 296.79416 94.897026 296.37927 L 95.65355 293.13306 L 130.64409 293.13306 L 129.88806 296.37927 C 128.9393 296.43903 127.724075 296.57928 126.241875 296.80185 C 124.76117 297.02444 123.64955 297.25433 122.907 297.49088 C 121.69276 297.87686 120.79651 298.47626 120.21685 299.29059 C 119.640564 300.10638 119.233376 301.01804 118.99533 302.02603 L 108.81338 346.17563 C 108.69484 346.68008 108.598465 347.1542 108.52377 347.59848 C 108.45054 348.0437 108.412476 348.38391 108.412476 348.62006 C 108.412476 350.10223 109.102005 351.13287 110.480576 351.7111 C 111.85865 352.28879 113.98603 352.71143 116.86077 352.97836 L 116.10425 356.22314 L 81.11371 356.22314 Z" fill="black"/></g></g></svg>
