<?xml version="1.0"?>
<!DOCTYPE svg PUBLIC "-//W3C//DTD SVG 1.1//EN" "http://www.w3.org/Graphics/SVG/1.1/DTD/svg11.dtd">
<svg xmlns="http://www.w3.org/2000/svg" xmlns:xl="http://www.w3.org/1999/xlink" version="1.1" viewBox="220 368 62 58" width="62pt" height="58pt"><metadata xmlns:dc="http://purl.org/dc/elements/1.1/"><dc:date>2010-01-10 17:11Z</dc:date><!-- Produced by OmniGraffle Professional 5.2.1 --></metadata><defs></defs><g stroke="none" stroke-opacity="1" stroke-dasharray="none" fill="none" fill-opacity="1"><title>Canvas 1</title><g><title>Layer 1</title><path d="M 227.78958 384.75003 L 227.78958 384.75003 L 227.78958 368.08862 L 225.2088 368.08862 C 224.8466 369.09995 224.1789 369.98468 223.20557 370.7428 C 222.23186 371.5014 221.33009 372.01648 220.5 372.28806 L 220.5 375.1744 C 222.07695 374.65369 223.44662 373.85004 224.60901 372.76346 L 224.60901 384.75003 Z M 231.74998 402.0459 L 231.74998 402.0459 L 225.4343 402.0459 C 225.60033 401.75894 225.81708 401.46472 226.08487 401.163 C 226.35284 400.86105 226.98859 400.2499 227.99223 399.3294 C 228.99571 398.40863 229.68996 397.70288 230.075 397.21252 C 230.65576 396.473 231.08046 395.76556 231.34837 395.09055 C 231.61609 394.41489 231.74998 393.70386 231.74998 392.95685 C 231.74998 391.64359 231.28227 390.54572 230.34673 389.6628 C 229.41106 388.78006 228.12413 388.33862 226.48666 388.33862 C 224.99246 388.33862 223.74751 388.71982 222.75157 389.48203 C 221.7554 390.24399 221.16309 391.50021 220.9744 393.2511 L 224.14372 393.56796 C 224.20435 392.63977 224.43065 391.9759 224.82278 391.57584 C 225.2153 391.17603 225.74327 390.97583 226.4074 390.97583 C 227.07898 390.97583 227.60562 391.16635 227.9864 391.54758 C 228.36761 391.92853 228.55824 392.47394 228.55824 393.18317 C 228.55824 393.82458 228.33923 394.47333 227.90166 395.12997 C 227.57707 395.60522 226.6982 396.51099 225.26425 397.84647 C 223.48343 399.49908 222.29134 400.82526 221.68748 401.82526 C 221.0838 402.82486 220.72168 403.8833 220.6009 405 L 231.74998 405 Z M 220.5 420.56384 L 220.5 420.56384 C 220.65849 421.95978 221.23222 423.09003 222.22057 423.95413 C 223.20944 424.81784 224.45435 425.25 225.95566 425.25 C 227.54025 425.25 228.86467 424.73672 229.92877 423.71063 C 230.99268 422.68436 231.52473 421.44308 231.52473 419.9867 C 231.52473 418.98297 231.23999 418.12659 230.67015 417.4174 C 230.10069 416.708 229.3401 416.25153 228.38942 416.0477 C 229.98155 415.18 230.77768 414.0178 230.77768 412.56152 C 230.77768 411.53503 230.38901 410.6145 229.61189 409.79974 C 228.6685 408.8036 227.41573 408.30554 225.8539 408.30554 C 224.94089 408.30554 224.11664 408.47723 223.38071 408.82056 C 222.64502 409.1639 222.07149 409.63556 221.66039 410.23535 C 221.24924 410.83514 220.94147 411.63678 220.7376 412.6406 L 223.66945 413.1387 C 223.75255 412.41428 223.98615 411.8635 224.37099 411.48611 C 224.75603 411.10873 225.22034 410.9201 225.76357 410.9201 C 226.31438 410.9201 226.75586 411.0863 227.08768 411.41815 C 227.41997 411.75043 227.58575 412.19547 227.58575 412.75366 C 227.58575 413.41028 227.35947 413.93668 226.90651 414.3328 C 226.45374 414.72897 225.79727 414.91568 224.93706 414.89322 L 224.58598 417.4853 C 225.15199 417.32678 225.63896 417.24774 226.04648 417.24734 C 226.66522 417.24774 227.18942 417.48123 227.61954 417.94922 C 228.04965 418.41702 228.26488 419.05096 228.26488 419.85077 C 228.26488 420.6959 228.0404 421.3674 227.59123 421.86557 C 227.14247 422.36362 226.58958 422.61255 225.93318 422.61255 C 225.32167 422.61255 224.80116 422.40506 224.37099 421.99014 C 223.94089 421.57513 223.67674 420.97534 223.57887 420.19028 Z M 238.49998 373.5 L 238.49998 378.00003 L 281.25 378.00003 L 281.25 373.5 Z M 238.49998 393.75 L 238.49998 398.25 L 281.25 398.25 L 281.25 393.75 Z M 238.49998 414 L 238.49998 418.50003 L 281.25 418.50003 L 281.25 414 Z" fill="black"/></g></g></svg>
