<?xml version="1.0"?>
<!DOCTYPE svg PUBLIC "-//W3C//DTD SVG 1.1//EN" "http://www.w3.org/Graphics/SVG/1.1/DTD/svg11.dtd">
<svg xmlns="http://www.w3.org/2000/svg" xmlns:xl="http://www.w3.org/1999/xlink" version="1.1" viewBox="220 220 64 64" width="64pt" height="64pt"><metadata xmlns:dc="http://purl.org/dc/elements/1.1/"><dc:date>2010-01-10 17:06Z</dc:date><!-- Produced by OmniGraffle Professional 5.2.1 --></metadata><defs></defs><g stroke="none" stroke-opacity="1" stroke-dasharray="none" fill="none" fill-opacity="1"><title>Canvas 1</title><g><title>Layer 1</title><path d="M 256.01859 250.05588 C 260.76382 242.61758 259.88812 232.62836 253.39134 226.13167 C 245.88245 218.6227 233.7081 218.6227 226.19919 226.13167 C 218.69026 233.64058 218.69026 245.81494 226.19919 253.32388 C 232.67006 259.79474 242.60551 260.68927 250.03436 256.00754 L 277.52682 283.5 L 283.49478 277.53207 Z M 251.03088 230.46902 L 251.03088 230.46902 C 245.28798 225.84747 236.86485 226.20229 231.53358 231.5336 C 226.20227 236.86485 225.84741 245.28815 230.46912 251.031 C 230.05959 250.70146 229.66371 250.34657 229.28357 249.96645 C 223.57216 244.25502 223.57216 234.99501 229.28357 229.28355 C 234.99496 223.57217 244.25497 223.57217 249.96642 229.28355 C 250.34654 229.6637 250.70137 230.05952 251.03088 230.46902 Z" fill="black"/></g></g></svg>
