<?xml version="1.0"?>
<!DOCTYPE svg PUBLIC "-//W3C//DTD SVG 1.1//EN" "http://www.w3.org/Graphics/SVG/1.1/DTD/svg11.dtd">
<svg xmlns="http://www.w3.org/2000/svg" xmlns:xl="http://www.w3.org/1999/xlink" version="1.1" viewBox="370 296 50 55" width="50pt" height="55pt"><metadata xmlns:dc="http://purl.org/dc/elements/1.1/"><dc:date>2010-01-10 17:09Z</dc:date><!-- Produced by OmniGraffle Professional 5.2.1 --></metadata><defs></defs><g stroke="none" stroke-opacity="1" stroke-dasharray="none" fill="none" fill-opacity="1"><title>Canvas 1</title><g><title>Layer 1</title><path d="M 401.05142 332.76532 C 399.45337 334.12357 397.91516 335.08221 396.4368 335.64127 C 394.9584 336.20117 393.3724 336.48068 391.67792 336.48068 C 388.88147 336.48068 386.73242 335.79755 385.2295 334.43121 C 383.72745 333.06448 382.97598 331.3191 382.9764 329.19284 C 382.97598 327.9462 383.25952 326.80762 383.82745 325.77664 C 384.39407 324.74655 385.13751 323.91916 386.05643 323.29584 C 386.97577 322.67252 388.01077 322.20148 389.1614 321.88177 C 390.008 321.65808 391.28677 321.44199 392.99689 321.23389 C 396.48145 320.81866 399.04572 320.32346 400.69199 319.74792 C 400.7076 319.15677 400.71564 318.78125 400.71564 318.62097 C 400.71564 316.86307 400.30798 315.624 399.49313 314.90558 C 398.39069 313.93042 396.75247 313.4433 394.57889 313.4433 C 392.5495 313.4433 391.05148 313.7987 390.08392 314.50995 C 389.11765 315.22125 388.40237 316.47995 387.93845 318.28561 L 383.71896 317.71005 C 384.1025 315.90353 384.73386 314.44568 385.61346 313.33478 C 386.49222 312.22476 387.7634 311.36972 389.4253 310.77048 C 391.08765 310.17087 393.01297 309.87125 395.2022 309.87125 C 397.3758 309.87125 399.14215 310.12668 400.50043 310.63834 C 401.8587 311.1496 402.85709 311.79343 403.4965 312.56769 C 404.13544 313.34326 404.58331 314.32153 404.83914 315.50482 C 404.9829 316.23975 405.0548 317.56674 405.0548 319.48404 L 405.0548 325.23724 C 405.0548 329.24863 405.14676 331.78613 405.33075 332.84927 C 405.51425 333.9115 405.87772 334.93042 406.4211 335.90515 L 401.91452 335.90515 C 401.46713 335.00989 401.17957 333.96329 401.05142 332.76532 Z M 400.69199 323.12842 C 399.12567 323.76736 396.77658 324.31076 393.6439 324.7577 C 391.87036 325.01443 390.6157 325.302 389.88074 325.62125 C 389.1449 325.94092 388.57736 326.40796 388.17776 327.02371 C 387.77814 327.639 387.57855 328.32214 387.57947 329.07272 C 387.57855 330.22382 388.01434 331.18246 388.88593 331.94955 C 389.75662 332.71664 391.03094 333.10065 392.7089 333.10065 C 394.3717 333.10065 395.84964 332.73718 397.14404 332.00986 C 398.43848 331.28293 399.38953 330.28812 399.99722 329.02496 C 400.4607 328.05069 400.69199 326.61203 400.69199 324.71039 L 400.69199 323.12842 Z" fill="black"/><path d="M 370.95926 342.86768 L 381.16745 350.36102 L 382.1633 338.51672 Z" fill="black"/><path d="M 419.50235 304.21509 L 409.29416 296.72174 L 408.2983 308.56604 Z" fill="black"/></g></g></svg>
