<?xml version="1.0"?>
<!DOCTYPE svg PUBLIC "-//W3C//DTD SVG 1.1//EN" "http://www.w3.org/Graphics/SVG/1.1/DTD/svg11.dtd">
<svg xmlns="http://www.w3.org/2000/svg" xmlns:xl="http://www.w3.org/1999/xlink" version="1.1" viewBox="218 302 67 34" width="67pt" height="34pt"><metadata xmlns:dc="http://purl.org/dc/elements/1.1/"><dc:date>2010-01-10 17:09Z</dc:date><!-- Produced by OmniGraffle Professional 5.2.1 --></metadata><defs></defs><g stroke="none" stroke-opacity="1" stroke-dasharray="none" fill="none" fill-opacity="1"><title>Canvas 1</title><g><title>Layer 1</title><path d="M 230.85696 324.02814 C 230.46758 324.44003 230.12798 324.9094 229.83827 325.436 C 229.31279 326.38983 229.0505 327.44324 229.0509 328.59662 C 229.0505 330.56384 229.74573 332.17868 231.13542 333.44318 C 232.52596 334.7073 234.51419 335.33932 237.10146 335.33932 C 238.66919 335.33932 240.13652 335.08072 241.50435 334.56271 C 242.87212 334.0455 244.29526 333.15854 245.77377 331.90186 C 245.89233 333.01025 246.15836 333.97855 246.5723 334.80682 L 250.74176 334.80682 C 250.23901 333.90506 249.90274 332.96234 249.73297 331.97958 C 249.56276 330.99594 249.47766 328.64828 249.47766 324.93695 L 249.47766 324.02814 L 255.64383 324.02814 L 255.64383 334.8068 L 259.34772 334.8068 L 259.34772 331.85681 C 260.9299 334.17847 263.11072 335.33926 265.89047 335.33926 C 268.68466 335.33926 271.08029 334.23798 273.07681 332.03448 C 274.84393 330.08414 275.82886 327.41531 276.03159 324.02814 L 284.25192 324.02814 L 284.25192 320.965 L 275.9878 320.965 C 275.88123 319.89331 275.67236 318.86652 275.3613 317.8844 C 274.88788 316.39102 274.23395 315.11536 273.39862 314.05826 C 272.56253 313.0007 271.49835 312.17984 270.2045 311.59656 C 268.91107 311.01239 267.53958 310.72034 266.0904 310.72034 C 263.47299 310.72034 261.32153 311.77753 259.63611 313.89218 L 259.63611 302.2922 L 255.64383 302.2922 L 255.64383 320.965 L 249.47766 320.965 L 249.47766 319.61414 C 249.47766 317.84021 249.41116 316.61249 249.27812 315.93253 C 249.04144 314.8378 248.62708 313.93268 248.03593 313.21512 C 247.44437 312.49878 246.52066 311.90314 245.26399 311.43008 C 244.00732 310.9567 242.37309 310.72037 240.36209 310.72037 C 238.33669 310.72037 236.55536 310.99762 235.01735 311.55234 C 233.47978 312.10681 232.30368 312.89789 231.49071 313.92487 C 230.67683 314.95258 230.09277 316.30142 229.73793 317.97284 L 233.64172 318.50534 C 234.07092 316.83472 234.73274 315.6702 235.62668 315.01212 C 236.52191 314.35406 237.90788 314.02527 239.78542 314.02527 C 241.79642 314.02527 243.31206 314.4759 244.33205 315.37814 C 245.08595 316.04282 245.46312 317.18918 245.46312 318.81561 C 245.46312 318.9639 245.45567 319.31134 245.44124 319.85825 C 244.25783 320.27197 242.56166 320.64084 240.3518 320.965 L 218.79599 320.965 L 218.79599 324.02814 Z M 241.68822 324.02814 L 245.44124 324.02814 L 245.44124 324.4495 C 245.44124 326.2089 245.22723 327.53992 244.79843 328.44131 C 244.23616 329.61002 243.35629 330.53036 242.15872 331.20291 C 240.96107 331.87585 239.59377 332.21213 238.05534 332.21213 C 236.50287 332.21213 235.32388 331.85684 234.51831 331.14713 C 233.71196 330.4374 233.30875 329.5505 233.3096 328.4855 C 233.30875 327.7911 233.49341 327.15903 233.86316 326.58981 C 234.23285 326.02008 234.75795 325.58798 235.43875 325.2922 C 236.11871 324.99686 237.2795 324.7308 238.92035 324.49329 C 239.93112 324.34903 240.85379 324.194 241.68822 324.02814 Z M 259.3276 324.02814 L 271.96402 324.02814 C 271.83282 326.52628 271.20544 328.44464 270.08267 329.78348 C 268.81067 331.2991 267.30289 332.05716 265.55789 332.05716 C 263.41437 332.05716 261.71362 331.02933 260.45691 328.97379 C 259.79889 327.8988 259.42267 326.2503 259.3276 324.02814 Z M 271.88803 320.965 L 259.40616 320.965 C 259.63278 319.00296 260.23431 317.43988 261.21085 316.27618 C 262.48239 314.76093 263.99023 314.00333 265.73517 314.00247 C 267.46521 314.00333 268.94 314.73492 270.16037 316.19855 C 271.09201 317.31677 271.66809 318.9057 271.88803 320.965 Z" fill="black"/></g></g></svg>
