<?xml version="1.0"?>
<!DOCTYPE svg PUBLIC "-//W3C//DTD SVG 1.1//EN" "http://www.w3.org/Graphics/SVG/1.1/DTD/svg11.dtd">
<svg xmlns="http://www.w3.org/2000/svg" xmlns:xl="http://www.w3.org/1999/xlink" version="1.1" viewBox="303 455 51 44" width="51pt" height="44pt"><metadata xmlns:dc="http://purl.org/dc/elements/1.1/"><dc:date>2010-01-10 17:11Z</dc:date><!-- Produced by OmniGraffle Professional 5.2.1 --></metadata><defs></defs><g stroke="none" stroke-opacity="1" stroke-dasharray="none" fill="none" fill-opacity="1"><title>Canvas 1</title><g><title>Layer 1</title><path d="M 316.56284 478.7738 L 316.56284 478.7738 C 316.6569 479.6528 316.86789 480.42072 317.19614 481.07755 L 320.50269 481.07755 C 320.10397 480.36237 319.83731 479.61478 319.7027 478.83542 C 319.56769 478.05536 319.50018 476.19357 319.50018 473.25034 L 319.50018 469.0291 C 319.50018 467.62234 319.44745 466.64868 319.34195 466.10947 C 319.15424 465.24124 318.82562 464.52353 318.35681 463.95444 C 317.8877 463.38638 317.15518 462.91394 316.1586 462.53885 C 315.16196 462.16345 313.86594 461.976 312.27115 461.976 C 310.66489 461.976 309.25223 462.19586 308.03253 462.6358 C 306.81317 463.07544 305.88046 463.70288 305.23572 464.5173 C 304.59033 465.33234 304.1271 466.402 303.8457 467.7275 L 306.94159 468.1498 C 307.28198 466.82492 307.80682 465.9014 308.51575 465.37955 C 309.2257 464.8577 310.32483 464.59686 311.81384 464.59686 C 313.4086 464.59686 314.61063 464.95428 315.4195 465.66977 C 316.0174 466.1969 316.3165 467.10602 316.3165 468.39587 C 316.3165 468.51346 316.3106 468.78894 316.2991 469.22275 C 315.09119 469.64496 313.20975 470.00836 310.6531 470.313 C 309.39838 470.46567 308.46008 470.62424 307.83893 470.78833 C 306.99469 471.02292 306.23526 471.36853 305.56076 471.82587 C 304.88654 472.28323 304.34103 472.89032 303.92532 473.6461 C 303.5086 474.40256 303.30057 475.23792 303.3009 476.1526 C 303.30057 477.71268 303.85193 478.99332 304.95401 479.9961 C 306.0567 480.9986 307.63348 481.49982 309.68533 481.49982 C 310.92859 481.49982 312.09229 481.29477 313.177 480.8839 C 314.26172 480.47379 315.39032 479.7704 316.56284 478.7738 Z M 316.2991 471.70303 L 316.2991 471.70303 L 316.2991 472.86374 C 316.2991 474.25903 316.12943 475.31458 315.78937 476.02942 C 315.34348 476.9562 314.6457 477.68613 313.69595 478.2195 C 312.74619 478.75314 311.66177 479.01984 310.44177 479.01984 C 309.21063 479.01984 308.2757 478.73807 307.63678 478.17523 C 306.99728 477.61243 306.67755 476.90906 306.67822 476.06445 C 306.67755 475.51376 306.824 475.0125 307.11722 474.5611 C 307.4104 474.10928 307.82678 473.7666 308.3667 473.53204 C 308.906 473.29782 309.8265 473.08688 311.12778 472.89847 C 313.42633 472.57053 315.14987 472.17184 316.2991 471.70303 Z M 327.32724 481.07755 L 327.32724 481.07755 L 327.32724 478.73807 C 328.58197 480.57922 330.3114 481.49982 332.5159 481.49982 C 334.73181 481.49982 336.63162 480.62643 338.21497 478.87894 C 339.79797 477.1318 340.58945 474.65768 340.58945 471.45657 C 340.58945 470.10788 340.40173 468.84164 340.02661 467.65732 C 339.65121 466.47302 339.13263 465.46133 338.47015 464.62302 C 337.8071 463.7843 336.9632 463.13336 335.9371 462.67075 C 334.91138 462.20755 333.8237 461.9759 332.67447 461.9759 C 330.59872 461.9759 328.89255 462.81427 327.5559 464.4913 L 327.5559 455.292 L 324.38986 455.292 L 324.38986 481.07755 Z M 327.29218 471.59714 L 327.29218 471.59714 C 327.29218 469.32224 327.79633 467.5836 328.80475 466.38196 C 329.81308 465.18024 331.00888 464.57938 332.39273 464.5788 C 333.76477 464.57938 334.93427 465.15964 335.90207 466.32034 C 336.86914 467.48105 337.35306 469.2813 337.35306 471.72037 C 337.35306 474.10074 336.84851 475.89182 335.84045 477.09378 C 334.83173 478.29578 333.63599 478.89694 332.25217 478.89694 C 330.55219 478.89694 329.20346 478.08185 328.20685 476.45166 C 327.59683 475.45508 327.29218 473.837 327.29218 471.59714 Z M 353.25 495.20728 L 353.25 495.20728 L 346.9343 495.20728 C 347.10031 494.92032 347.3171 494.62607 347.58484 494.32434 C 347.85281 494.02243 348.48862 493.41132 349.49222 492.49075 C 350.4957 491.57004 351.18991 490.86423 351.57495 490.37384 C 352.15576 489.63437 352.58044 488.92697 352.84836 488.25195 C 353.11615 487.5763 353.25 486.86526 353.25 486.1182 C 353.25 484.80496 352.78223 483.7071 351.84674 482.82416 C 350.91107 481.94144 349.62408 481.49997 347.98666 481.49997 C 346.49243 481.49997 345.2475 481.88116 344.25156 482.6434 C 343.25537 483.40533 342.66309 484.6616 342.47443 486.4125 L 345.64365 486.72937 C 345.70435 485.80115 345.9306 485.13724 346.32275 484.7372 C 346.71527 484.3374 347.24329 484.1372 347.9074 484.1372 C 348.57895 484.1372 349.10556 484.3277 349.48633 484.7089 C 349.86755 485.0899 350.05826 485.63528 350.05826 486.3445 C 350.05826 486.98596 349.83923 487.6347 349.40161 488.29135 C 349.07706 488.76654 348.19821 489.67233 346.76422 491.00784 C 344.98343 492.66043 343.7913 493.98663 343.1874 494.98663 C 342.58377 495.98627 342.22159 497.04468 342.10092 498.16138 L 353.25 498.16138 Z" fill="black"/></g></g></svg>
