<?xml version="1.0"?>
<!DOCTYPE svg PUBLIC "-//W3C//DTD SVG 1.1//EN" "http://www.w3.org/Graphics/SVG/1.1/DTD/svg11.dtd">
<svg xmlns="http://www.w3.org/2000/svg" xmlns:xl="http://www.w3.org/1999/xlink" version="1.1" viewBox="231 443 51 39" width="51pt" height="39pt"><metadata xmlns:dc="http://purl.org/dc/elements/1.1/"><dc:date>2010-01-10 17:11Z</dc:date><!-- Produced by OmniGraffle Professional 5.2.1 --></metadata><defs></defs><g stroke="none" stroke-opacity="1" stroke-dasharray="none" fill="none" fill-opacity="1"><title>Canvas 1</title><g><title>Layer 1</title><path d="M 244.56288 478.7738 L 244.56288 478.7738 C 244.65689 479.6528 244.86787 480.42072 245.19614 481.07751 L 248.50272 481.07751 C 248.10397 480.3624 247.83734 479.61478 247.70268 478.8354 C 247.56767 478.0554 247.50024 476.19354 247.50024 473.25037 L 247.50024 469.0291 C 247.50024 467.62231 247.4475 466.6487 247.34195 466.10944 C 247.15425 465.2413 246.82568 464.52353 246.35686 463.95447 C 245.88774 463.38635 245.15518 462.91397 244.1586 462.53882 C 243.16202 462.1634 241.86598 461.976 240.27115 461.976 C 238.66489 461.976 237.25223 462.19586 236.03258 462.63577 C 234.81317 463.0755 233.88046 463.70285 233.23572 464.51724 C 232.59033 465.33234 232.1271 466.402 231.84569 467.7275 L 234.94164 468.14975 C 235.28198 466.82492 235.80685 465.9014 236.51578 465.37952 C 237.22571 464.8577 238.32484 464.59686 239.81383 464.59686 C 241.40865 464.59686 242.61063 464.95428 243.4195 465.66977 C 244.0174 466.1969 244.31648 467.10602 244.31648 468.3958 C 244.31648 468.51343 244.31059 468.789 244.29915 469.22272 C 243.09123 469.645 241.2098 470.00833 238.6531 470.313 C 237.39838 470.46564 236.46008 470.62424 235.83893 470.78833 C 234.99469 471.02292 234.2353 471.36856 233.56075 471.8259 C 232.88654 472.2832 232.34103 472.89032 231.92531 473.6461 C 231.50858 474.40253 231.30055 475.23795 231.3009 476.15265 C 231.30055 477.7127 231.85193 478.99332 232.95401 479.99615 C 234.05673 480.99863 235.63353 481.49985 237.68533 481.49985 C 238.92862 481.49985 240.09229 481.2948 241.17703 480.88394 C 242.26173 480.47375 243.39034 479.77042 244.56288 478.7738 Z M 244.29915 471.70306 L 244.29915 471.70306 L 244.29915 472.86377 C 244.29915 474.25903 244.12943 475.3146 243.78937 476.02942 C 243.34348 476.95624 242.64569 477.68616 241.69595 478.2195 C 240.74622 478.7532 239.66183 479.01987 238.44182 479.01987 C 237.21063 479.01987 236.27568 478.73813 235.63683 478.17526 C 234.99733 477.61243 234.67755 476.90906 234.67825 476.0645 C 234.67755 475.51376 234.824 475.01257 235.1172 474.5611 C 235.4104 474.10934 235.82684 473.76666 236.36668 473.5321 C 236.90599 473.29785 237.82655 473.08682 239.12782 472.8985 C 241.42633 472.57053 243.14987 472.17184 244.29915 471.70306 Z M 255.32768 481.07773 L 255.32768 481.07773 L 255.32768 478.73822 C 256.58243 480.5794 258.31186 481.5 260.51636 481.5 C 262.73233 481.5 264.63214 480.6266 266.21548 478.87912 C 267.79846 477.13196 268.58997 474.65787 268.58997 471.4568 C 268.58997 470.108 268.40225 468.84183 268.02713 467.65753 C 267.65167 466.47318 267.13309 465.46152 266.47067 464.62323 C 265.80759 463.78452 264.96365 463.13358 263.93759 462.671 C 262.91183 462.2077 261.82416 461.97607 260.67493 461.97607 C 258.59918 461.97607 256.893 462.81445 255.55635 464.49149 L 255.55635 455.2922 L 252.39032 455.2922 L 252.39032 481.07773 Z M 255.29262 471.59735 L 255.29262 471.59735 C 255.29262 469.32242 255.79678 467.58377 256.8052 466.3821 C 257.81357 465.18045 259.00934 464.57962 260.39319 464.57898 C 261.7652 464.57962 262.93475 465.15982 263.90253 466.32053 C 264.86966 467.48123 265.35352 469.28146 265.35352 471.72055 C 265.35352 474.10095 264.84903 475.89197 263.84094 477.09393 C 262.83221 478.29596 261.63644 478.89716 260.25262 478.89716 C 258.55267 478.89716 257.20389 478.08203 256.2073 476.45184 C 255.59732 475.45526 255.29262 473.8372 255.29262 471.59735 Z M 281.25 456.95724 L 281.25 456.95724 L 274.9343 456.95724 C 275.10031 456.67032 275.3171 456.37604 275.58484 456.07434 C 275.85281 455.7724 276.48862 455.16129 277.49225 454.24072 C 278.49573 453.32 279.18991 452.61426 279.57495 452.1239 C 280.15576 451.3843 280.58044 450.67694 280.84836 450.0019 C 281.11615 449.32623 281.25 448.6152 281.25 447.8682 C 281.25 446.55496 280.78223 445.45706 279.84674 444.57413 C 278.9111 443.6914 277.62411 443.25 275.98666 443.25 C 274.49243 443.25 273.2475 443.63116 272.25159 444.39337 C 271.2554 445.15533 270.66309 446.4116 270.47443 448.16245 L 273.64365 448.4793 C 273.70435 447.55109 273.93066 446.8872 274.32275 446.4872 C 274.71527 446.08737 275.24329 445.88718 275.90741 445.88718 C 276.57898 445.88718 277.10559 446.07767 277.48633 446.45886 C 277.86755 446.83984 278.05826 447.38525 278.05826 448.0945 C 278.05826 448.73593 277.83923 449.38467 277.40164 450.0413 C 277.07706 450.51657 276.19821 451.4223 274.76422 452.7578 C 272.98343 454.41043 271.79129 455.7366 271.18741 456.73663 C 270.58377 457.73624 270.22165 458.79465 270.10092 459.91135 L 281.25 459.91135 Z" fill="black"/></g></g></svg>
