<?xml version="1.0"?>
<!DOCTYPE svg PUBLIC "-//W3C//DTD SVG 1.1//EN" "http://www.w3.org/Graphics/SVG/1.1/DTD/svg11.dtd">
<svg xmlns="http://www.w3.org/2000/svg" xmlns:xl="http://www.w3.org/1999/xlink" version="1.1" viewBox="147 293 65 63" width="65pt" height="63pt"><metadata xmlns:dc="http://purl.org/dc/elements/1.1/"><dc:date>2010-01-10 17:06Z</dc:date><!-- Produced by OmniGraffle Professional 5.2.1 --></metadata><defs></defs><g stroke="none" stroke-opacity="1" stroke-dasharray="none" fill="none" fill-opacity="1"><title>Canvas 1</title><g><title>Layer 1</title><path d="M 211.20116 296.2442 C 210.48282 296.31912 209.44952 296.48615 208.10028 296.7461 C 206.75156 297.00604 205.61786 297.45789 204.70201 298.10129 C 203.76074 298.72061 203.09839 299.83487 202.71495 301.44403 C 202.33017 303.05417 202.13914 305.46814 202.13914 308.68695 L 202.13914 328.29623 C 202.13914 334.06546 200.18257 338.7084 196.27045 342.22418 C 192.35872 345.73993 187.18436 347.49802 180.74629 347.49802 C 173.2448 347.49802 167.43858 345.8024 163.328 342.4101 C 159.21838 339.01785 157.16287 334.2884 157.16287 328.2222 L 157.16287 301.25906 C 157.16287 300.39182 156.995865 299.64899 156.660965 299.03006 C 156.32703 298.41116 155.690155 297.85431 154.74889 297.35895 C 154.10547 297.03748 153.31316 296.77795 152.37189 296.5791 C 151.43062 296.3816 150.66232 296.24515 150.06892 296.1702 L 150.06892 293.34781 L 177.70045 293.34781 L 177.70045 296.1702 C 176.90814 296.22015 176.10332 296.31308 175.28694 296.4491 C 174.47011 296.58557 173.64076 296.78955 172.79895 297.06195 C 171.85768 297.35895 171.22589 297.85431 170.90485 298.54718 C 170.58247 299.24146 170.42195 300.02081 170.42195 300.88715 L 170.42195 327.47983 C 170.42195 332.70465 171.57324 336.50491 173.87527 338.8819 C 176.17825 341.25882 179.52101 342.44711 183.90309 342.44711 C 188.21211 342.44711 191.59138 341.13489 194.04234 338.50998 C 196.49338 335.88556 197.71909 332.02335 197.71909 326.92294 L 197.71909 309.05786 C 197.71909 305.88861 197.5022 303.5176 197.06924 301.94592 C 196.63585 300.37378 195.9735 299.24146 195.08218 298.54718 C 194.43875 298.00323 193.31898 297.50787 191.7214 297.06195 C 190.12425 296.61612 189.00346 296.34363 188.36011 296.2442 L 188.36011 293.34781 L 211.20116 293.34781 L 211.20116 296.2442 Z M 147.88251 351.69373 L 147.88251 355.6868 L 211.43011 355.6868 L 211.43011 351.69373 L 147.88251 351.69373 Z" fill="black"/></g></g></svg>
